PathFileType	4	(X/Y/Z)	 s04c0001.trc
DataRate	CameraRate	NumFrames	NumMarkers	Units	OrigDataRate	OrigDataStartFrame	OrigNumFrames
200	200	4	49	mm	200	1501	2000
Frame#	Time	racr			lacr			c7			jug			rlel			rdr			llel			ldr			s2			lic			ric			lasi			rasi			rpsi			lpsi			rgt			lgt			rth1			rth2			rth3			rth4			rlfc			rmfc			rsh1			rsh2			rsh3			rsh4			rlmal			rmmal			rcal			rtoe			rmt5			rmt1			lth1			lth2			lth4			lth3			llfc			lmfc			lsh1			lsh2			lsh3			lsh4			llmal			lmmal			lcal			ltoe			lmt1			lmt5			
		X1	Y1	Z1	X2	Y2	Z2	X3	Y3	Z3	X4	Y4	Z4	X5	Y5	Z5	X6	Y6	Z6	X7	Y7	Z7	X8	Y8	Z8	X9	Y9	Z9	X10	Y10	Z10	X11	Y11	Z11	X12	Y12	Z12	X13	Y13	Z13	X14	Y14	Z14	X15	Y15	Z15	X16	Y16	Z16	X17	Y17	Z17	X18	Y18	Z18	X19	Y19	Z19	X20	Y20	Z20	X21	Y21	Z21	X22	Y22	Z22	X23	Y23	Z23	X24	Y24	Z24	X25	Y25	Z25	X26	Y26	Z26	X27	Y27	Z27	X28	Y28	Z28	X29	Y29	Z29	X30	Y30	Z30	X31	Y31	Z31	X32	Y32	Z32	X33	Y33	Z33	X34	Y34	Z34	X35	Y35	Z35	X36	Y36	Z36	X37	Y37	Z37	X38	Y38	Z38	X39	Y39	Z39	X40	Y40	Z40	X41	Y41	Z41	X42	Y42	Z42	X43	Y43	Z43	X44	Y44	Z44	X45	Y45	Z45	X46	Y46	Z46	X47	Y47	Z47	X48	Y48	Z48	X49	Y49	Z49	
1501	7.5050	193.501360	1563.142035	287.111509	211.903822	1558.300148	-80.214729	136.058675	1591.126212	88.834474	271.159547	1529.052331	99.977403	115.595858	1224.282883	384.140734	228.504865	980.860347	490.416305	163.632396	1242.160516	-187.782076	294.005437	978.470751	-266.545150	76.267130	1055.154388	99.609819	250.254416	1111.463109	-47.021812	213.599543	1100.322525	275.460229	297.877714	1055.574035	6.262406	280.249673	1058.949910	233.769492	93.548568	1089.628181	144.562460	95.376348	1085.344386	65.811829	178.435785	1000.412675	279.337514	200.300356	955.796560	-65.467465	191.152094	864.978018	300.636968	204.345916	778.085561	290.465186	175.784199	698.460917	280.519034	240.154238	776.856796	280.401875	158.541090	547.964294	250.164438	165.374308	525.693965	139.964409	108.733738	426.265681	268.448843	123.935691	336.659432	260.171823	90.416968	257.741681	243.263746	160.096892	335.600997	246.129973	89.398645	103.771245	231.472325	138.923342	111.528278	159.371723	47.831778	68.564776	167.790534	314.221129	83.009074	304.845259	232.290228	52.638822	326.727891	279.553067	49.733170	227.773891	202.571608	862.453037	-79.070228	220.569735	777.305129	-77.006487	256.720305	775.684317	-66.141496	193.008694	692.791592	-71.639174	169.839698	552.389920	-53.271408	194.652099	522.226325	51.344612	151.934560	424.506617	-79.967926	173.664560	340.431819	-67.667222	149.467082	254.760294	-67.457355	202.837324	341.601221	-41.419087	147.108811	105.237148	-63.735970	154.866791	100.215494	21.988360	80.120135	77.409553	-14.404465	377.125376	82.656261	-57.721482	312.986338	54.833701	0.048868	302.302555	43.067336	-110.997588	
1502	7.5100	193.445647	1563.146454	287.109071	211.842077	1558.294007	-80.206925	136.001272	1591.132099	88.825430	271.110846	1529.046321	99.981652	115.543189	1224.265363	384.132691	228.478489	980.853324	490.435841	163.578110	1242.143191	-187.769534	293.947042	978.457202	-266.504394	76.382553	1054.966767	99.848109	250.215734	1111.461938	-47.020958	213.554796	1100.337084	275.455055	297.847157	1055.573514	6.250763	280.208266	1058.956042	233.781818	93.539128	1089.617455	144.567336	95.343849	1085.332984	65.811388	178.400385	1000.407697	279.354550	200.267685	955.791455	-65.467280	191.137859	864.974005	300.636206	204.338978	778.092156	290.460958	175.777159	698.434311	280.523643	240.136519	776.840775	280.404223	158.545127	547.954127	250.152231	165.347616	525.694455	139.959970	108.743745	426.264033	268.450182	123.954032	336.670900	260.180170	90.410491	257.747272	243.268713	160.094996	335.596054	246.148748	89.416763	103.767843	231.476370	138.926570	111.534961	159.356744	47.834061	68.571609	167.794662	314.222445	83.014342	304.838050	232.311491	52.639475	326.728141	279.552175	49.727746	227.763802	202.526756	862.463820	-79.071067	220.530914	777.323213	-77.014941	256.702252	775.681057	-66.131366	192.989650	692.798498	-71.640206	169.822546	552.393165	-53.269865	194.648178	522.218952	51.352765	151.918654	424.527713	-79.966111	173.656778	340.432569	-67.674463	149.465062	254.761566	-67.472440	202.848318	341.599027	-41.405455	147.086448	105.263554	-63.733742	154.855870	100.235708	21.987498	80.133008	77.405424	-14.393549	377.114371	82.655556	-57.717165	312.990959	54.839880	0.043371	302.298811	43.074105	-110.996757	
1503	7.5150	193.376788	1563.129384	287.105099	211.798541	1558.276800	-80.211542	135.948913	1591.126413	88.822538	271.058286	1529.052140	99.983561	115.495494	1224.247612	384.156110	228.449444	980.864036	490.463322	163.537782	1242.134933	-187.754178	293.897457	978.435728	-266.460938	76.344518	1054.953069	99.872106	250.173119	1111.462427	-47.017236	213.556956	1100.350900	275.474054	297.805438	1055.575365	6.262153	280.167770	1058.951332	233.788539	93.500004	1089.622518	144.561936	95.305705	1085.329949	65.811887	178.365845	1000.414913	279.349694	200.241526	955.787350	-65.463061	191.133228	864.960906	300.636266	204.317077	778.096790	290.475232	175.754528	698.448738	280.517229	240.132871	776.861797	280.408900	158.537797	547.956147	250.162257	165.345461	525.673620	139.964216	108.722200	426.267512	268.455382	123.942379	336.647357	260.174347	90.421588	257.721190	243.263382	160.081877	335.595838	246.141879	89.399608	103.770574	231.471668	138.918969	111.527326	159.362912	47.844852	68.562311	167.811934	314.217128	83.036004	304.836643	232.311371	52.643549	326.716640	279.560447	49.725947	227.765912	202.510253	862.459228	-79.072911	220.537398	777.306844	-77.015419	256.690431	775.696145	-66.118084	192.980526	692.785737	-71.621947	169.803038	552.387256	-53.278545	194.620530	522.215485	51.360087	151.915872	424.500198	-79.969089	173.649758	340.436768	-67.668757	149.450946	254.758628	-67.467434	202.834507	341.586595	-41.403121	147.108749	105.237196	-63.735927	154.878719	100.234374	21.969560	80.129867	77.413482	-14.401110	377.114372	82.655577	-57.717152	312.991828	54.834361	0.051517	302.325195	43.059178	-110.974092	
1504	7.5200	193.306903	1563.137914	287.102411	211.734675	1558.278153	-80.208365	135.871822	1591.125793	88.828974	270.990438	1529.048908	99.991948	115.454319	1224.243486	384.149951	228.441616	980.865678	490.468082	163.476019	1242.136532	-187.732803	293.848377	978.423266	-266.416124	76.303408	1054.952041	99.867482	250.135119	1111.463807	-47.037713	213.490466	1100.348401	275.452166	297.764544	1055.575947	6.260622	280.142812	1058.958110	233.775557	93.474919	1089.613545	144.560446	95.272341	1085.326219	65.816092	178.329973	1000.418279	279.363387	200.210832	955.783669	-65.472467	191.083834	864.979742	300.626155	204.274466	778.094182	290.466086	175.732803	698.435942	280.523780	240.122380	776.865832	280.411464	158.523269	547.963769	250.163045	165.335565	525.689344	139.959174	108.719269	426.256575	268.451010	123.919211	336.650390	260.176009	90.410020	257.724567	243.267550	160.083194	335.575417	246.125846	89.400486	103.769015	231.473830	138.927580	111.513922	159.365901	47.829124	68.556689	167.796541	314.223430	83.026727	304.835110	232.292565	52.646581	326.714980	279.543709	49.732541	227.753493	202.495979	862.460667	-79.063577	220.498577	777.324929	-77.023873	256.655698	775.697507	-66.125152	192.966518	692.816214	-71.637373	169.793490	552.381717	-53.259602	194.610836	522.218022	51.356897	151.909070	424.522539	-79.956002	173.644925	340.440783	-67.664942	149.443624	254.751974	-67.460052	202.825387	341.598849	-41.417429	147.108716	105.237221	-63.735905	154.874486	100.226635	21.972401	80.125756	77.415478	-14.410724	377.114375	82.655599	-57.717140	312.998474	54.837445	0.054789	302.299553	43.076780	-110.985648	
